<svg width="22" height="22" viewBox="0 0 22 22" fill="none" xmlns="http://www.w3.org/2000/svg">
<circle cx="11.385" cy="10.8503" r="10.2437" fill="#6EC1FF" stroke="black" stroke-width="0.5"/>
<path d="M6.33783 10.8866C6.50495 13.2522 7.29182 15.4501 7.86662 17.1284C8.5566 19.143 9.57886 20.5293 9.57886 20.5293C9.57886 20.5293 7.6576 20.1816 6.1457 19.248C3.89669 17.8594 1.0943 15.0529 1.0943 10.8361C1.0943 7.47018 2.92839 4.72339 4.85708 3.12917C6.96899 1.3835 9.71606 0.986084 9.71606 0.986084C9.71606 0.986084 7.82874 2.51189 7.02517 4.74039C6.4511 6.33242 6.16172 8.3936 6.33783 10.8866Z" fill="#1D92EA"/>
<path d="M8.32954 3.78619C7.46672 3.25215 6.77777 1.76693 6.77777 1.76693C6.77777 1.76693 7.70596 1.28117 8.32954 1.09041C8.95121 0.900227 9.30652 0.797247 9.95145 0.715284C10.7588 0.612676 11.2259 0.631652 12.0355 0.715284C12.7785 0.792043 13.9112 1.09041 13.9112 1.09041C13.9112 1.09041 15.175 1.35662 15.9562 1.76695C16.5263 2.06641 16.9237 2.25491 17.4124 2.67429C17.788 2.99669 17.9718 3.20717 18.3293 3.54959C18.7534 3.95569 19.0228 4.15298 19.4131 4.59162C19.7291 4.94679 19.9114 5.14708 20.1633 5.55028C20.4813 6.05929 20.7967 6.95051 20.7967 6.95051C20.7967 6.95051 19.5089 7.24126 18.6259 7.44724C17.743 7.65321 17.0586 7.65686 16.09 7.44724C15.0734 7.2272 14.5439 6.88307 13.6765 6.31922L13.6458 6.29928C12.5925 5.61475 12.4096 4.63342 11.2626 4.12748C10.2052 3.66101 9.31401 4.39553 8.32954 3.78619Z" fill="#55D47B" stroke="black" stroke-width="0.5"/>
<path d="M4.03357 6.42872C3.20393 6.50932 2.12232 6.70535 2.12232 6.70535C2.12232 6.70535 1.65938 7.80798 1.48719 8.55024C1.31505 9.29233 1.24808 9.72408 1.24524 10.4859C1.24231 11.2711 1.34269 11.7102 1.48719 12.482C1.62389 13.2121 1.70771 13.6248 1.95049 14.3269C2.16948 14.9601 2.30311 15.3183 2.63647 15.8996C2.93976 16.4284 3.1499 16.7046 3.54379 17.1698C3.90698 17.5988 4.55434 18.1947 4.55434 18.1947C4.55434 18.1947 5.27505 17.7885 5.65374 17.4222C6.22404 16.8706 6.52491 16.4686 6.75315 15.6989C6.99014 14.8997 6.96491 14.3663 6.75315 13.5596C6.53423 12.7258 5.85954 12.4954 5.65374 11.6581C5.47679 10.938 5.56096 10.493 5.65374 9.75648C5.75292 8.96925 6.25686 8.58475 6.17451 7.79548C6.11506 7.22558 6.10085 6.77176 5.65374 6.42872C5.14686 6.03982 4.66347 6.36753 4.03357 6.42872Z" fill="#55D47B" stroke="black" stroke-width="0.5"/>
<path d="M12.4168 19.2574C12.2402 19.9737 12.1829 20.976 12.1829 20.976C12.1829 20.976 13.105 20.945 13.6816 20.8294C14.3916 20.687 14.7864 20.5531 15.4408 20.243C16.0423 19.9579 16.3393 19.7199 16.8906 19.347C17.3133 19.0612 17.5567 18.9072 17.9494 18.5814C18.5658 18.0703 18.8943 17.7497 19.3829 17.1154C19.9549 16.3728 20.1884 15.8856 20.572 15.0303C20.8521 14.406 20.9949 14.0453 21.1747 13.3851C21.3899 12.595 21.5168 11.3163 21.5168 11.3163L19.4576 10.7132C19.4576 10.7132 18.1957 10.2895 17.3781 10.3775C16.7104 10.4494 16.196 10.4167 15.7441 10.9268C15.3738 11.3449 15.3363 11.736 15.2985 12.3C15.2508 13.0122 15.8026 13.3585 15.7441 14.0699C15.6787 14.8664 14.8529 15.9008 14.8529 15.9008L13.516 17.3655C12.994 17.9375 12.6225 18.4233 12.4168 19.2574Z" fill="#55D47B" stroke="black" stroke-width="0.5"/>
</svg>
