<svg width="22" height="34" viewBox="0 0 22 34" fill="none" xmlns="http://www.w3.org/2000/svg">
<path d="M21.7471 22.5441C21.7471 19.7041 20.6189 16.9805 18.6108 14.9723C16.6026 12.9641 13.8789 11.8359 11.0389 11.8359C8.19895 11.8359 5.47528 12.9641 3.46711 14.9723C1.45893 16.9805 0.33075 19.7041 0.33075 22.5441L11.0389 22.5441H21.7471Z" fill="#FFC155"/>
<path d="M3.52735 21.1374C3.52735 21.1374 2.92658 19.7664 2.83341 18.8302C2.43358 14.8124 8.37811 12.3914 8.37811 12.3914C8.37811 12.3914 7.26655 12.5928 5.755 13.4524C5.02509 13.8481 4.14117 14.5257 3.52735 15.139C1.62 17.0447 0.548462 19.6294 0.548462 22.3244L10.719 22.3244V21.1374H3.52735Z" fill="#EA9C17"/>
<path d="M11.0389 1.40674V12.7672" stroke="#CBB7FF" stroke-width="0.5" stroke-linecap="round"/>
<path d="M11.0765 1.69587C11.0765 1.69587 12.2264 0.609863 13.1354 0.609863C14.0445 0.609863 15.1944 1.69587 15.1944 1.69587C15.1944 1.69587 16.3765 2.59151 17.2533 2.59151C18.1302 2.59151 19.3123 1.69587 19.3123 1.69587V7.09508C19.3123 7.09508 18.1109 7.85851 17.2533 7.85851C16.3958 7.85851 15.1944 6.90338 15.1944 6.90338C15.1944 6.90338 14.0802 5.82471 13.1354 5.82471C12.1906 5.82471 11.0765 7.09508 11.0765 7.09508V1.69587Z" fill="#FD0000"/>
<path d="M0.637557 21.1201L21.426 21.1345C21.426 21.1345 21.4937 21.5077 21.5084 21.749C21.523 21.9913 21.5244 22.3327 21.5244 22.3327H0.548462C0.548462 22.3327 0.553198 21.9848 0.562527 21.7573C0.572387 21.5169 0.637557 21.1201 0.637557 21.1201Z" fill="#EA9C17"/>
<circle cx="3.74367" cy="19.9785" r="1.9421" fill="#EA9C17"/>
<circle cx="6.13922" cy="14.571" r="1.09222" fill="#EA9C17"/>
<circle cx="15.415" cy="16.5287" r="1.09222" fill="#EA9C17"/>
<circle cx="11.3152" cy="19.0466" r="0.97139" fill="#EA9C17"/>
<circle cx="18.7335" cy="19.1674" r="1.54681" fill="#EA9C17"/>
</svg>
