<svg width="21" height="20" viewBox="0 0 21 20" fill="none" xmlns="http://www.w3.org/2000/svg">
<path d="M10.7087 1.00903C15.5517 1.00903 19.4783 4.93543 19.4783 9.77856C19.4781 14.6216 15.5517 18.5481 10.7087 18.5481H1.31421L2.72632 15.6555L2.83765 15.428L2.78784 15.179V15.176C2.78745 15.1741 2.78666 15.1711 2.78589 15.1672C2.78431 15.1593 2.78213 15.1475 2.77905 15.1321C2.77283 15.1008 2.7634 15.0538 2.75171 14.9944C2.72832 14.8755 2.69421 14.704 2.65405 14.4944C2.57362 14.0745 2.46711 13.5021 2.36011 12.8918C2.14011 11.6371 1.93927 10.3239 1.93921 9.77856C1.93921 4.93544 5.86576 1.00905 10.7087 1.00903Z" stroke="#6EC1FF" stroke-width="1.5"/>
<path d="M7.78931 12.0645H14.1177" stroke="#6EC1FF" stroke-width="2" stroke-linecap="round"/>
<path d="M7.78931 7.98071H10.1707" stroke="#6EC1FF" stroke-width="2" stroke-linecap="round"/>
</svg>
